# Blender 3.5.1
# www.blender.org
o Cube.012_Cube.002
v 1.058508 2.226677 1.847061
v 1.058508 2.226677 1.416860
v 1.700191 -1.413467 1.859213
v 1.709539 -1.176751 0.565992
v 0.381332 2.226677 1.847061
v 0.381332 2.226677 1.416860
v -0.260350 -1.413467 1.859213
v -0.269699 -1.176751 0.565992
v -0.044804 -2.228272 0.785295
v 1.484644 -2.379455 1.559503
v 1.484644 -2.228272 0.785295
v 1.484644 -2.201954 1.065279
v -0.070297 -0.085190 0.806271
v 1.500929 -0.196259 1.843834
v -0.061088 -0.196259 1.843834
v 1.510138 -0.085190 0.806271
v 1.058508 2.324024 1.572436
v -0.269699 -1.176751 1.020710
v 1.709539 -1.176751 1.020710
v 0.381332 2.324024 1.572436
v -0.044804 -2.379455 1.559503
v -0.044804 -2.201954 1.065279
v 1.510138 -0.085190 1.169367
v -0.070297 -0.085190 1.169367
v 0.256226 1.562258 1.828529
v 1.183615 1.562258 1.239371
v 0.256226 1.562258 1.239371
v 1.183615 1.562258 1.828529
v 1.183615 1.562258 1.452433
v 0.256226 1.562258 1.452433
v 1.406586 -1.053489 2.386252
v 0.033255 -1.053489 2.386252
v 1.277063 -0.370553 2.380250
v 0.162777 -0.370553 2.380250
v -6.137101 0.184761 1.235212
v -6.421326 -0.482992 1.143958
v 7.588724 -0.482992 1.316653
v 7.588724 -0.482992 1.143958
v 7.304501 0.184761 1.235212
v 7.304501 0.184761 1.373111
v -6.137101 0.184761 1.373111
v -6.421326 -0.482992 1.316653
v 3.232393 2.590117 1.465850
v 3.232393 2.516975 1.310273
v -1.792552 2.590117 1.465850
v -1.792552 2.516975 1.310273
v 3.357500 2.017777 1.132785
v -1.917659 2.017777 1.345848
v -1.917659 2.017777 1.132785
v 3.357500 2.017777 1.345848
v 0.627546 1.989875 3.451575
v 0.652470 2.539618 3.466908
v 0.787372 2.539618 3.466908
v 0.812294 1.989875 3.451575
v 0.992414 2.404488 1.493420
v 0.447426 2.404488 1.493420
v 0.992414 2.482833 1.618628
v 0.447426 2.482833 1.618628
v 0.447426 2.404488 1.839645
v 0.992414 2.404488 1.839645
v 4.744215 0.017560 0.837219
v 5.000273 -0.937255 0.666878
v 5.000275 -0.937255 0.989242
v 4.744215 0.017560 1.094629
v -3.696654 -0.937255 0.666878
v -3.440594 0.017560 0.837219
v -3.440594 0.017560 1.094629
v -3.696654 -0.937255 0.989242
v 1.391394 -0.145682 0.451734
v 1.458426 -1.077741 0.246565
v -0.018584 -1.077741 0.246565
v 0.048447 -0.145682 0.451734
v 0.981635 -0.164941 0.802127
v 1.483964 -0.164941 0.802127
v 1.630223 -1.096999 0.596958
v 0.981635 -1.096999 0.596958
v -0.044123 -0.164941 0.802127
v 0.458206 -0.164941 0.802127
v 0.458206 -1.096999 0.596958
v -0.190382 -1.096999 0.596958
v 1.080720 -0.145682 0.451734
v 1.080720 -1.077741 0.246565
v 0.359121 -0.145682 0.451734
v 0.359121 -1.077741 0.246565
v 1.709539 -1.422284 1.823374
v -0.269699 -1.422284 1.823374
v 1.510138 -0.165022 1.810299
v -0.070297 -0.165022 1.810299
v 1.397219 -1.044721 2.422215
v 0.042622 -1.044721 2.422215
v 1.260748 -0.360584 2.413267
v 0.179092 -0.360584 2.413267
v 1.689349 -1.407319 1.836136
v 1.388491 -1.049816 2.365759
v 0.051350 -1.049816 2.365759
v -0.249508 -1.407319 1.836136
v 1.475249 -0.197401 1.832137
v -0.035408 -0.197401 1.832137
v 1.251384 -0.371695 2.368555
v 0.188457 -0.371695 2.368555
vn -0.0000 0.9663 0.2574
vn -0.9867 0.1535 0.0544
vn -0.0000 0.2150 -0.9766
vn 0.9840 0.1768 0.0220
vn 0.9284 0.3503 0.1242
vn -0.0000 -0.9956 0.0936
vn -0.0000 -0.2042 -0.9789
vn 0.9740 -0.2165 -0.0662
vn -0.9752 -0.2085 -0.0749
vn 0.9809 0.1944 -0.0000
vn -0.0000 0.2543 -0.9671
vn -0.9840 0.1768 0.0220
vn -0.0000 -0.0106 0.9999
vn 0.0961 -0.1346 0.9862
vn -0.9768 -0.2143 -0.0000
vn -0.0000 -0.2658 0.9640
vn -0.8574 0.4362 -0.2730
vn -0.1319 0.1891 -0.9731
vn 0.2051 -0.9787 -0.0000
vn 0.9785 -0.2053 0.0193
vn -0.9809 0.1944 -0.0000
vn -0.0783 -0.1426 0.9867
vn -0.0000 -0.9670 0.2548
vn -0.0000 0.2581 -0.9661
vn 0.9867 0.1535 0.0544
vn -0.0000 0.0131 0.9999
vn 0.4109 -0.0697 0.9090
vn -0.0000 0.9512 0.3085
vn 0.4097 0.0866 -0.9081
vn 0.1414 0.2105 -0.9673
vn -0.0992 -0.1257 0.9871
vn 0.0619 0.9981 -0.0000
vn -0.0652 0.9979 -0.0000
vn 0.1729 -0.9849 -0.0000
vn -0.1645 -0.9864 -0.0000
vn -0.9201 0.3916 -0.0000
vn 0.9201 0.3916 -0.0000
vn -0.9700 0.2431 -0.0000
vn 0.9700 0.2431 -0.0000
vn -0.1379 0.8396 -0.5254
vn -0.0976 0.2397 -0.9659
vn 0.1305 0.8972 -0.4218
vn -0.2051 -0.9787 -0.0000
vn 0.0712 -0.1897 0.9792
vn 0.0883 0.3140 -0.9453
vn -0.0000 -0.0279 0.9996
vn -0.0000 0.9818 -0.1897
vn -0.9867 0.0403 0.1574
vn 0.9685 0.1775 0.1748
vn -0.0000 0.9425 0.3341
vn -0.0000 0.8477 -0.5304
vn -0.0000 0.3955 -0.9185
vn -0.0000 0.0417 0.9991
vn -0.9284 0.3503 0.1242
vn 0.8574 0.4362 -0.2730
vn 0.0726 -0.9974 -0.0000
vn -0.0318 0.9995 -0.0000
vn 0.0270 -0.1300 0.9911
vn 0.0170 0.1800 -0.9835
vn -0.0697 -0.9976 -0.0000
vn 0.0305 0.9995 -0.0000
vn -0.0024 0.2154 -0.9765
vn -0.0165 -0.1053 0.9943
vn -0.0000 -0.9411 -0.3380
vn -0.0000 -0.2150 0.9766
vn -0.0000 0.9985 0.0549
vn -0.9614 0.0591 -0.2686
vn -0.0000 -0.9985 -0.0549
vn 0.9611 0.1235 -0.2471
vn -0.8788 0.2300 -0.4182
vn 0.9614 0.0591 -0.2686
vn -0.0000 -0.9710 0.2389
vn 0.9097 0.1483 0.3879
vn -0.9640 0.1605 0.2120
vn -0.0000 -0.9715 0.2369
vn 0.9612 0.1841 0.2055
vn -0.9021 0.1850 0.3899
vn -0.8803 0.2015 0.4295
vn 0.9039 0.1108 0.4132
vn -0.0000 -0.8288 0.5595
vn -0.8864 0.1775 0.4276
vn 0.9009 0.1607 0.4032
vn 0.1547 -0.9568 -0.2463
vn -0.7546 0.1375 -0.6416
vn -0.0000 -0.9843 -0.1764
vn -0.9099 -0.1440 0.3891
vn -0.1547 -0.9568 -0.2463
vn -0.9827 0.1850 -0.0000
vn 0.9864 0.1569 0.0480
vn 0.9752 -0.2085 -0.0749
vn -0.9740 -0.2165 -0.0662
vn 0.9824 0.1855 0.0231
vn -0.9864 0.1569 0.0480
vn 0.0943 -0.1237 0.9878
vn -0.9785 -0.2053 0.0193
vn -0.1348 0.2089 -0.9686
vn 0.9768 -0.2143 -0.0000
vn -0.0712 -0.1897 0.9792
vn 0.9827 0.1850 -0.0000
vn -0.9824 0.1855 0.0231
vn 0.9099 -0.1440 0.3891
vn 0.7546 0.1375 -0.6416
vn 0.1385 0.1917 -0.9716
vn -0.1008 -0.1358 0.9856
vn -0.9659 0.2342 -0.1101
vn 0.9659 0.2342 -0.1101
vn -0.1305 0.8972 -0.4218
vn -0.0883 0.3140 -0.9453
vn 0.1379 0.8396 -0.5254
vn 0.0783 -0.1426 0.9867
vn 0.0976 0.2397 -0.9659
vn -0.9685 0.1775 0.1748
vn 0.9867 0.0403 0.1574
vn 0.0172 -0.1051 0.9943
vn 0.0025 0.2154 -0.9765
vn -0.0164 0.1799 -0.9836
vn -0.0259 -0.1302 0.9911
vn 0.8788 0.2300 -0.4182
vn -0.9611 0.1235 -0.2471
vn 0.9640 0.1605 0.2120
vn -0.9097 0.1483 0.3880
vn 0.9021 0.1850 0.3899
vn -0.9612 0.1841 0.2055
vn -0.9039 0.1108 0.4132
vn 0.8803 0.2015 0.4295
vn -0.9009 0.1607 0.4032
vn 0.8864 0.1775 0.4276
vn -0.4097 0.0866 -0.9081
vn -0.4109 -0.0697 0.9090
s 0
f 3//1 96//1 7//1
f 30//2 5//2 20//2
f 16//3 8//3 13//3
f 87//4 19//4 23//4
f 17//5 60//5 1//5
f 9//6 12//6 22//6
f 4//7 9//7 8//7
f 85//8 12//8 19//8
f 86//9 22//9 21//9
f 28//10 23//10 29//10
f 26//11 13//11 27//11
f 18//12 88//12 24//12
f 25//13 87//13 28//13
f 67//14 42//14 68//14
f 26//10 23//10 16//10
f 8//15 22//15 18//15
f 86//16 10//16 85//16
f 20//17 56//17 6//17
f 66//18 36//18 35//18
f 26//19 50//19 29//19
f 4//20 12//20 11//20
f 24//21 27//21 13//21
f 20//22 48//22 30//22
f 28//23 51//23 25//23
f 6//24 26//24 27//24
f 1//25 29//25 17//25
f 24//21 25//21 30//21
f 92//26 89//26 91//26
f 15//27 96//27 98//27
f 88//28 91//28 87//28
f 33//29 94//29 99//29
f 61//30 38//30 62//30
f 64//31 37//31 40//31
f 67//32 35//32 41//32
f 64//33 39//33 61//33
f 63//34 38//34 37//34
f 68//35 36//35 65//35
f 35//36 42//36 41//36
f 39//37 37//37 38//37
f 48//38 46//38 49//38
f 44//39 50//39 47//39
f 17//40 44//40 2//40
f 2//41 47//41 26//41
f 20//42 46//42 45//42
f 27//43 48//43 49//43
f 17//44 50//44 43//44
f 6//45 49//45 46//45
f 52//46 54//46 53//46
f 5//47 53//47 1//47
f 5//48 51//48 52//48
f 1//49 54//49 28//49
f 59//50 57//50 58//50
f 58//51 55//51 56//51
f 6//52 55//52 2//52
f 1//53 59//53 5//53
f 20//54 59//54 58//54
f 17//55 55//55 57//55
f 19//56 62//56 63//56
f 16//57 64//57 61//57
f 19//58 64//58 23//58
f 4//59 61//59 62//59
f 18//60 65//60 8//60
f 13//61 67//61 24//61
f 8//62 66//62 13//62
f 18//63 67//63 68//63
f 22//64 10//64 21//64
f 69//3 82//3 81//3
f 76//65 74//65 73//65
f 74//66 81//66 73//66
f 72//3 84//3 71//3
f 77//65 79//65 78//65
f 77//66 83//66 72//66
f 76//67 81//67 82//67
f 76//68 70//68 75//68
f 74//69 70//69 69//69
f 77//70 71//70 80//70
f 79//68 71//68 84//68
f 79//71 83//71 78//71
f 3//72 86//72 85//72
f 14//73 85//73 87//73
f 15//74 86//74 7//74
f 31//75 90//75 32//75
f 33//76 89//76 31//76
f 34//77 90//77 92//77
f 15//78 92//78 88//78
f 14//79 91//79 33//79
f 96//80 94//80 95//80
f 98//81 95//81 100//81
f 97//82 94//82 93//82
f 33//83 97//83 14//83
f 34//84 95//84 32//84
f 32//85 94//85 31//85
f 14//86 93//86 3//86
f 34//87 98//87 100//87
f 3//1 93//1 96//1
f 30//88 25//88 5//88
f 16//3 4//3 8//3
f 87//89 85//89 19//89
f 17//5 57//5 60//5
f 9//6 11//6 12//6
f 4//7 11//7 9//7
f 85//90 10//90 12//90
f 86//91 18//91 22//91
f 28//92 87//92 23//92
f 26//11 16//11 13//11
f 18//93 86//93 88//93
f 25//13 88//13 87//13
f 67//94 41//94 42//94
f 26//10 29//10 23//10
f 8//95 9//95 22//95
f 86//16 21//16 10//16
f 20//17 58//17 56//17
f 66//96 65//96 36//96
f 26//19 47//19 50//19
f 4//97 19//97 12//97
f 24//21 30//21 27//21
f 20//98 45//98 48//98
f 28//23 54//23 51//23
f 6//24 2//24 26//24
f 1//99 28//99 29//99
f 24//100 88//100 25//100
f 92//26 90//26 89//26
f 15//101 7//101 96//101
f 88//28 92//28 91//28
f 33//102 31//102 94//102
f 61//103 39//103 38//103
f 64//104 63//104 37//104
f 67//32 66//32 35//32
f 64//33 40//33 39//33
f 63//34 62//34 38//34
f 68//35 42//35 36//35
f 35//36 36//36 42//36
f 39//37 40//37 37//37
f 48//105 45//105 46//105
f 44//106 43//106 50//106
f 17//107 43//107 44//107
f 2//108 44//108 47//108
f 20//109 6//109 46//109
f 27//43 30//43 48//43
f 17//110 29//110 50//110
f 6//111 27//111 49//111
f 52//46 51//46 54//46
f 5//47 52//47 53//47
f 5//112 25//112 51//112
f 1//113 53//113 54//113
f 59//50 60//50 57//50
f 58//51 57//51 55//51
f 6//52 56//52 55//52
f 1//53 60//53 59//53
f 20//54 5//54 59//54
f 17//55 2//55 55//55
f 19//56 4//56 62//56
f 16//57 23//57 64//57
f 19//114 63//114 64//114
f 4//115 16//115 61//115
f 18//60 68//60 65//60
f 13//61 66//61 67//61
f 8//116 65//116 66//116
f 18//117 24//117 67//117
f 22//64 12//64 10//64
f 69//3 70//3 82//3
f 76//65 75//65 74//65
f 74//66 69//66 81//66
f 72//3 83//3 84//3
f 77//65 80//65 79//65
f 77//66 78//66 83//66
f 76//67 73//67 81//67
f 76//68 82//68 70//68
f 74//118 75//118 70//118
f 77//119 72//119 71//119
f 79//68 80//68 71//68
f 79//71 84//71 83//71
f 3//72 7//72 86//72
f 14//120 3//120 85//120
f 15//121 88//121 86//121
f 31//75 89//75 90//75
f 33//122 91//122 89//122
f 34//123 32//123 90//123
f 15//124 34//124 92//124
f 14//125 87//125 91//125
f 96//80 93//80 94//80
f 98//126 96//126 95//126
f 97//127 99//127 94//127
f 33//83 99//83 97//83
f 34//128 100//128 95//128
f 32//85 95//85 94//85
f 14//129 97//129 93//129
f 34//87 15//87 98//87
